<svg width="300" height="300" viewBox="0 0 300 300" fill="none" xmlns="http://www.w3.org/2000/svg">
<path fill-rule="evenodd" clip-rule="evenodd" d="M162.032 98.6989C176.152 89.6385 176.454 75.7066 176.454 75.7066C176.454 75.7066 177.521 67.6621 171.398 60.0706C169.214 57.1423 165.544 53.5702 159.689 51.5518C159.689 51.5518 159.689 51.5518 159.674 51.5306V51.5422C156.702 50.5437 153.606 50.0238 150.488 50C123.419 50 122.487 75.0608 122.487 75.0608C122.487 75.0608 118.764 105.911 160.741 113.886C160.741 113.886 201.291 121.433 201.291 175.466C201.291 187.302 199.141 198.391 194.814 208.457C190.525 218.578 184.541 226.611 177.067 232.387C169.56 238.17 161.136 241.125 152.015 241.125C145.644 241.125 139.21 239.666 132.853 236.884C126.459 234.01 120.611 229.769 115.487 224.265C110.338 218.73 106.213 211.833 103.227 203.79C100.242 195.748 98.7689 186.566 98.7689 176.434C98.7689 133.371 123.819 119.199 128.079 116.267C130.521 114.589 131.385 113.282 131.68 112.475C131.745 112.289 131.777 112.094 131.777 111.896C131.771 111.489 131.629 111.097 131.376 110.79C131.122 110.484 130.774 110.282 130.393 110.223C128.964 110.059 126.98 110.728 126.98 110.728C126.14 111.027 125.316 111.335 124.487 111.659C115.838 115.071 107.858 120.145 100.95 126.626C94.1253 133.076 88.6354 140.953 84.8256 149.759C80.9461 158.694 79 168.458 79 178.82C79 189.037 80.9152 199.227 84.7164 209.086C88.5176 218.944 94.8621 227.666 103.468 234.879C112.119 242.087 131.9 249 145.691 249C149.727 249 154.284 248.614 159.208 247.886C167.162 246.683 173.648 243.945 178.892 241.748L180.727 240.95C186.281 238.65 192.378 234.588 198.853 228.791C202.665 225.304 206.115 221.396 209.143 217.134C212.327 212.675 215.169 206.906 217.517 199.987C219.806 193.116 221 185.172 221 176.434C221 162.747 217.998 150.409 212.114 139.806C208.941 134.07 204.957 128.882 200.301 124.423H200.281C185.988 112.041 177.033 109.791 168.087 107.958C159.141 106.125 151.196 105.213 144.14 100.792C138.667 97.3475 134.808 88.8519 134.808 78.9086C134.808 65.9155 141.407 55.39 149.541 55.39C157.675 55.39 164.287 65.9155 164.287 78.9086C164.287 84.2369 163.181 89.1469 161.318 93.0891C161.318 93.0891 160.182 95.6048 159.807 96.5957C159.707 96.8466 159.65 97.1142 159.638 97.3861C159.665 97.8158 159.85 98.2172 160.153 98.5051C160.455 98.793 160.852 98.9448 161.258 98.9283C161.529 98.9166 161.794 98.838 162.032 98.6989V98.6989Z" fill="#363534"/>
</svg>
