<svg width="534" height="331" viewBox="0 0 534 331" fill="none" xmlns="http://www.w3.org/2000/svg">
<path d="M60.949 190.296C60.949 193.883 59.8206 197.269 57.5637 200.452C55.3068 203.577 52.2108 206.094 48.2757 208.004C44.3984 209.913 40.1161 210.868 35.4287 210.868C28.7159 210.868 22.1188 209.161 15.6375 205.747C14.8273 205.804 13.8725 205.833 12.773 205.833C11.3841 205.833 9.79272 205.689 7.99878 205.399C7.07288 199.555 6.60992 194.202 6.60992 189.341C6.60992 188.357 6.66779 186.823 6.78353 184.74L11.9049 184.914C12.5994 187.344 13.207 189.283 13.7278 190.73C14.3065 192.176 14.9431 193.507 15.6375 194.723C16.3319 195.938 17.1132 197.066 17.9812 198.108C22.3214 203.432 27.7032 206.094 34.1267 206.094C38.409 206.094 42.0258 204.821 44.9771 202.274C47.9285 199.67 49.4041 196.488 49.4041 192.726C49.4041 190.18 48.6229 187.952 47.0604 186.042C45.5558 184.133 43.5883 182.454 41.1578 181.008C38.7851 179.561 34.0688 177.015 27.0088 173.369C22.2056 170.765 18.0101 167.842 14.4223 164.602C10.8344 161.303 9.04043 156.934 9.04043 151.494C9.04043 146.17 11.3552 141.801 15.9847 138.387C20.6142 134.915 26.6037 133.179 33.9531 133.179C37.2516 133.179 40.0293 133.526 42.2862 134.22C44.601 134.915 48.3335 136.419 53.4839 138.734C54.4098 141.917 54.8727 145.592 54.8727 149.758C54.8727 150.742 54.8438 151.61 54.7859 152.362C54.7859 153.115 54.7859 153.954 54.7859 154.88L50.5326 155.401C47.4655 149.209 44.7746 144.868 42.4598 142.38C40.1451 139.834 36.615 138.561 31.8698 138.561C28.0504 138.561 24.9544 139.573 22.5818 141.599C20.2092 143.566 19.0228 145.852 19.0228 148.456C19.0228 151.639 20.3249 154.272 22.929 156.355C25.591 158.439 30.0469 161.043 36.2968 164.168C41.3892 166.656 45.6137 169 48.9701 171.199C52.3844 173.34 55.22 175.973 57.4769 179.098C59.7916 182.223 60.949 185.955 60.949 190.296ZM157.377 140.818H147.221L147.569 178.143C147.569 182.773 147.048 187.084 146.006 191.077C144.965 195.07 143.344 198.571 141.145 201.58C138.946 204.531 136.053 206.846 132.465 208.524C128.935 210.203 124.595 211.042 119.444 211.042C111.458 211.042 104.63 208.756 98.9586 204.184C93.3453 199.555 90.5386 192.118 90.5386 181.876C90.5386 179.503 90.5965 175.915 90.7122 171.112C90.828 166.309 90.8858 163.878 90.8858 163.82L91.0594 145.331C91.0594 143.653 90.828 142.496 90.365 141.859C89.9021 141.223 88.7157 140.875 86.8061 140.818C82.9867 140.528 80.4983 140.297 79.341 140.123L79.5146 135.349C85.8802 135.117 91.4935 135.002 96.3545 135.002C102.894 135.002 108.594 135.175 113.455 135.522V140.818C109.172 140.818 105.729 141.078 103.125 141.599L102.952 180.487C102.952 187.778 104.34 193.536 107.118 197.761C109.954 201.985 114.902 204.097 121.962 204.097C125.781 204.097 128.964 203.403 131.51 202.014C134.114 200.625 136.168 198.802 137.673 196.545C139.235 194.231 140.306 191.655 140.885 188.82C141.521 185.984 141.84 183.091 141.84 180.14L141.666 147.241C141.666 145.852 141.434 143.711 140.972 140.818L129.427 140.991L129.6 135.002H144.01C147.945 135.002 152.401 135.06 157.377 135.175V140.818ZM256.67 172.674C256.67 180.776 254.703 187.634 250.768 193.247C246.89 198.86 241.624 203.056 234.969 205.833C228.315 208.611 220.849 210 212.574 210H176.637L176.985 204.531L188.79 203.403V144.029C188.79 143.045 187.777 142.467 185.752 142.293L177.245 141.338V135.696C179.618 135.638 182.829 135.551 186.88 135.436C190.989 135.32 195.156 135.233 199.38 135.175C203.604 135.06 207.048 135.002 209.71 135.002C220.184 135.002 228.951 136.709 236.011 140.123C243.071 143.479 248.279 147.993 251.636 153.664C254.992 159.278 256.67 165.614 256.67 172.674ZM243.129 173.195C243.129 167.466 242.174 162.489 240.264 158.265C238.355 154.041 235.751 150.655 232.452 148.109C229.211 145.563 225.508 143.682 221.341 142.467C217.233 141.252 212.719 140.644 207.8 140.644C206.932 140.644 205.63 140.702 203.894 140.818C202.158 140.933 201.145 140.991 200.856 140.991V203.75C205.485 204.097 208.61 204.271 210.23 204.271C215.497 204.271 220.242 203.49 224.466 201.927C228.691 200.307 232.134 198.108 234.796 195.33C237.516 192.495 239.57 189.196 240.959 185.435C242.406 181.615 243.129 177.535 243.129 173.195ZM437.038 209.306C436.575 209.306 436.112 209.335 435.649 209.392C435.186 209.392 434.636 209.392 434 209.392C430.759 209.335 427.229 209.277 423.41 209.219C419.648 209.161 417.739 209.132 417.681 209.132L401.622 209.653L401.796 203.924C404.863 203.924 408.48 203.75 412.646 203.403L399.539 185.782C396.587 181.962 394.099 179.011 392.074 176.928C390.048 174.787 388.081 173.716 386.171 173.716H383.48L383.827 203.577L394.331 203.924L394.504 209.306H379.574C370.72 209.306 364.557 209.421 361.085 209.653L360.738 204.271L370.025 203.577C370.836 203.461 371.299 203.287 371.414 203.056C371.53 202.766 371.588 202.014 371.588 200.799V169.81L371.414 144.897C371.414 143.277 371.328 142.264 371.154 141.859C370.98 141.454 370.373 141.165 369.331 140.991C366.958 140.76 365.107 140.644 363.776 140.644H360.738L360.911 135.349C365.193 135.349 368.492 135.378 370.807 135.436C373.121 135.436 375.697 135.465 378.532 135.522C383.625 135.522 388.891 135.349 394.331 135.002L393.983 140.297H389.383C386.547 140.297 384.811 140.441 384.174 140.731C383.596 140.962 383.306 141.657 383.306 142.814L383.48 168.942C384.985 168.826 386.345 168.363 387.56 167.553C388.775 166.743 391.09 164.544 394.504 160.956L401.275 153.838C406.425 148.109 410.273 143.653 412.82 140.47H402.75V135.522L432.958 135.002V140.297L422.976 140.47C421.645 140.47 420.603 140.673 419.851 141.078C419.098 141.483 418.057 142.409 416.726 143.856L397.542 165.73L424.712 200.972C425.638 202.014 426.737 202.766 428.01 203.229C429.283 203.692 431.28 203.924 434 203.924H436.691L437.038 209.306ZM530.515 140.818H520.359L520.706 178.143C520.706 182.773 520.185 187.084 519.144 191.077C518.102 195.07 516.482 198.571 514.283 201.58C512.084 204.531 509.19 206.846 505.602 208.524C502.072 210.203 497.732 211.042 492.582 211.042C484.596 211.042 477.767 208.756 472.096 204.184C466.483 199.555 463.676 192.118 463.676 181.876C463.676 179.503 463.734 175.915 463.85 171.112C463.966 166.309 464.023 163.878 464.023 163.82L464.197 145.331C464.197 143.653 463.966 142.496 463.503 141.859C463.04 141.223 461.853 140.875 459.944 140.818C456.124 140.528 453.636 140.297 452.479 140.123L452.652 135.349C459.018 135.117 464.631 135.002 469.492 135.002C476.031 135.002 481.731 135.175 486.592 135.522V140.818C482.31 140.818 478.867 141.078 476.263 141.599L476.089 180.487C476.089 187.778 477.478 193.536 480.256 197.761C483.091 201.985 488.039 204.097 495.099 204.097C498.918 204.097 502.101 203.403 504.648 202.014C507.252 200.625 509.306 198.802 510.811 196.545C512.373 194.231 513.444 191.655 514.022 188.82C514.659 185.984 514.977 183.091 514.977 180.14L514.804 147.241C514.804 145.852 514.572 143.711 514.109 140.818L502.564 140.991L502.738 135.002H517.147C521.082 135.002 525.538 135.06 530.515 135.175V140.818Z" fill="white"/>
<path fill-rule="evenodd" clip-rule="evenodd" d="M316.715 130.502C324.115 125.796 324.273 118.56 324.273 118.56C324.273 118.56 324.832 114.382 321.624 110.439C320.479 108.918 318.556 107.063 315.487 106.014C315.487 106.014 315.487 106.014 315.48 106.003V106.009C313.922 105.491 312.299 105.221 310.666 105.208C296.48 105.208 295.991 118.225 295.991 118.225C295.991 118.225 294.04 134.247 316.039 138.39C316.039 138.39 337.29 142.309 337.29 170.373C337.29 176.521 336.163 182.28 333.895 187.508C331.647 192.765 328.511 196.937 324.595 199.937C320.66 202.94 316.246 204.475 311.466 204.475C308.127 204.475 304.755 203.717 301.424 202.273C298.073 200.78 295.008 198.577 292.323 195.718C289.625 192.844 287.463 189.261 285.898 185.084C284.333 180.907 283.562 176.138 283.562 170.876C283.562 148.51 296.69 141.149 298.922 139.626C300.201 138.755 300.655 138.076 300.809 137.657C300.843 137.56 300.86 137.459 300.86 137.356C300.857 137.145 300.782 136.941 300.65 136.782C300.517 136.623 300.334 136.518 300.135 136.487C299.386 136.402 298.346 136.75 298.346 136.75C297.906 136.905 297.474 137.065 297.04 137.233C292.507 139.005 288.325 141.64 284.705 145.007C281.128 148.357 278.251 152.448 276.254 157.022C274.221 161.662 273.201 166.734 273.201 172.115C273.201 177.422 274.205 182.714 276.197 187.835C278.189 192.955 281.514 197.485 286.024 201.231C290.558 204.975 300.925 208.565 308.152 208.565C310.267 208.565 312.655 208.365 315.236 207.987C319.404 207.362 322.803 205.94 325.551 204.799L326.513 204.384C329.423 203.19 332.619 201.08 336.012 198.069C338.01 196.258 339.817 194.229 341.405 192.015C343.073 189.699 344.563 186.702 345.793 183.109C346.993 179.54 347.618 175.414 347.618 170.876C347.618 163.767 346.045 157.359 342.962 151.852C341.299 148.873 339.211 146.178 336.771 143.862H336.76C329.27 137.431 324.577 136.263 319.889 135.311C315.2 134.359 311.037 133.885 307.339 131.589C304.471 129.8 302.448 125.387 302.448 120.223C302.448 113.475 305.907 108.008 310.169 108.008C314.432 108.008 317.897 113.475 317.897 120.223C317.897 122.99 317.317 125.541 316.341 127.588C316.341 127.588 315.746 128.895 315.549 129.409C315.497 129.54 315.467 129.679 315.461 129.82C315.475 130.043 315.572 130.252 315.73 130.401C315.889 130.551 316.097 130.63 316.31 130.621C316.452 130.615 316.591 130.574 316.715 130.502V130.502Z" fill="white"/>
</svg>
