<?xml version="1.0" encoding="utf-8"?>
<!-- Generator: Adobe Illustrator 26.2.1, SVG Export Plug-In . SVG Version: 6.00 Build 0)  -->
<svg version="1.1" id="Layer_1" xmlns="http://www.w3.org/2000/svg" xmlns:xlink="http://www.w3.org/1999/xlink" x="0px" y="0px"
	 viewBox="0 0 300 300" style="enable-background:new 0 0 300 300;" xml:space="preserve">
<style type="text/css">
	.st0{fill-rule:evenodd;clip-rule:evenodd;fill:#FFFFFF;}
</style>
<path class="st0" d="M223.1,213c-11.5,0-21.6,6-27.4,15.1c-0.1-0.1-0.2-0.2-0.3-0.3l-86.3-64.7c-0.5-0.4-1.1-0.7-1.7-0.9
	c1.1-3.2,1.7-6.7,1.7-10.3c0-3.6-0.6-7.1-1.7-10.3c0.6-0.2,1.2-0.5,1.7-0.9l81.5-61.1c5.6,4.5,12.6,7.2,20.3,7.2
	c17.9,0,32.4-14.5,32.4-32.4c0-17.9-14.5-32.4-32.4-32.4c-17.9,0-32.4,14.5-32.4,32.4c0,5.1,1.2,9.9,3.3,14.2l-81.1,60.8
	c-0.1,0.1-0.3,0.2-0.4,0.3c-5.9-6.3-14.3-10.2-23.5-10.2c-17.9,0-32.4,14.5-32.4,32.4s14.5,32.4,32.4,32.4c9.3,0,17.6-3.9,23.5-10.2
	c0.1,0.1,0.2,0.2,0.4,0.3l86.3,64.7c1.2,0.9,2.7,1.4,4.1,1.4c-0.2,1.6-0.4,3.2-0.4,4.9c0,17.9,14.5,32.4,32.4,32.4
	c17.9,0,32.4-14.5,32.4-32.4C255.5,227.5,241,213,223.1,213z M211,36.1c10.1,0,18.3,8.2,18.3,18.3c0,10.1-8.2,18.3-18.3,18.3
	c-10.1,0-18.3-8.2-18.3-18.3C192.7,44.3,200.9,36.1,211,36.1z M76.9,170.2c-10.1,0-18.3-8.2-18.3-18.3s8.2-18.3,18.3-18.3
	c10.1,0,18.3,8.2,18.3,18.3S87,170.2,76.9,170.2z M223.1,263.6c-10.1,0-18.3-8.2-18.3-18.3c0-10.1,8.2-18.3,18.3-18.3
	c10.1,0,18.3,8.2,18.3,18.3C241.4,255.5,233.2,263.6,223.1,263.6z"/>
</svg>
